<svg xmlns="http://www.w3.org/2000/svg" viewBox="0 0 400 400" width="400" height="400">
  <rect width="400" height="400" fill="#1a1a2e"/>
  <circle cx="200" cy="200" r="120" fill="#16213e" stroke="#0f3460" stroke-width="4"/>
  <circle cx="200" cy="200" r="80" fill="#1a1a2e" stroke="#0f3460" stroke-width="2"/>
  <circle cx="200" cy="200" r="40" fill="#16213e" stroke="#0f3460" stroke-width="2"/>
  <circle cx="200" cy="200" r="15" fill="#e94560"/>
  <circle cx="200" cy="200" r="8" fill="#1a1a2e"/>
  <!-- Vinyl grooves -->
  <circle cx="200" cy="200" r="60" fill="none" stroke="#0f3460" stroke-width="1" opacity="0.5"/>
  <circle cx="200" cy="200" r="90" fill="none" stroke="#0f3460" stroke-width="1" opacity="0.5"/>
  <circle cx="200" cy="200" r="100" fill="none" stroke="#0f3460" stroke-width="1" opacity="0.5"/>
  <circle cx="200" cy="200" r="110" fill="none" stroke="#0f3460" stroke-width="1" opacity="0.5"/>
  <!-- Music note icon -->
  <g transform="translate(170, 320)">
    <path d="M30 0 L30 40 Q30 50 20 50 Q10 50 10 40 Q10 30 20 30 Q25 30 30 32 L30 10 L50 5 L50 35 Q50 45 40 45 Q30 45 30 35 Q30 25 40 25 Q45 25 50 27 L50 0 Z" fill="#e94560" opacity="0.8"/>
  </g>
</svg>
